<svg width="122" height="112" viewBox="0 0 122 112" fill="none" xmlns="http://www.w3.org/2000/svg">
<rect y="0.905518" width="121.737" height="110.372" rx="10" fill="url(#paint0_linear_120_826)"/>
<mask id="mask0_120_826" style="mask-type:alpha" maskUnits="userSpaceOnUse" x="8" y="4" width="104" height="103">
<rect x="8.98218" y="4.54047" width="102.159" height="102.159" fill="white"/>
</mask>
<g mask="url(#mask0_120_826)">
<path d="M55.8054 97.0158V58.0676L21.7524 38.3807V72.5402C21.7524 74.1009 22.1248 75.5198 22.8697 76.7968C23.6147 78.0738 24.6611 79.1025 26.009 79.8829L55.8054 97.0158ZM64.3187 97.0158L94.1151 79.8829C95.4631 79.1025 96.5095 78.0738 97.2544 76.7968C97.9993 75.5198 98.3717 74.1009 98.3717 72.5402V38.3807L64.3187 58.0676V97.0158ZM81.2388 38.4871L93.7959 31.1444L64.3187 14.2243C62.9708 13.4439 61.5519 13.0537 60.0621 13.0537C58.5722 13.0537 57.1534 13.4439 55.8054 14.2243L47.3986 19.013L81.2388 38.4871ZM60.0621 50.7249L72.7255 43.4887L38.9917 23.9082L26.2218 31.2508L60.0621 50.7249Z" fill="white"/>
</g>
<defs>
<linearGradient id="paint0_linear_120_826" x1="60.8687" y1="0.905518" x2="60.8687" y2="111.278" gradientUnits="userSpaceOnUse">
<stop stop-color="#2ECFA7"/>
<stop offset="1" stop-color="#176955"/>
</linearGradient>
</defs>
</svg>
