<svg width="104" height="84" viewBox="0 0 104 84" fill="none" xmlns="http://www.w3.org/2000/svg">
<rect x="41.9485" y="0.495728" width="39.0586" height="6.4119" fill="#FAD38A"/>
<rect x="22.947" y="77.4385" width="39.0586" height="6.4119" fill="#DA3D27"/>
<path d="M23.7209 83.8504C6.02679 83.8504 -3.43152 65.1908 2.59518 42.1731C8.62189 19.1553 27.8514 0.495728 45.5455 0.495728C51.9379 0.495728 57.2554 2.93112 61.1561 7.12755C67.2544 2.93112 73.8471 0.495728 80.2395 0.495728C94.0997 0.495728 102.906 11.9451 103.176 27.97H68.4816C68.3366 19.3358 65.7131 12.03 61.1561 7.12755C50.3744 14.5469 41.1386 27.471 37.2891 42.1731C33.4397 56.8752 35.9078 69.7992 42.8043 77.2186C49.8952 72.339 56.3175 65.0784 60.9786 56.4969H95.6725C87.0029 72.4585 72.2402 83.8504 58.4149 83.8504C52.0225 83.8504 46.705 81.415 42.8043 77.2186C36.7061 81.415 30.1133 83.8504 23.7209 83.8504Z" fill="url(#paint0_linear_120_792)"/>
<path d="M68.4816 27.97C68.3366 19.3358 65.7131 12.03 61.1561 7.12755C67.2544 2.93112 73.8471 0.495728 80.2395 0.495728C94.0997 0.495728 102.906 11.9451 103.176 27.97H68.4816Z" fill="url(#paint1_linear_120_792)"/>
<path d="M2.59518 42.1731C-3.43151 65.1908 6.02678 83.8504 23.7209 83.8504C30.1133 83.8504 36.7061 81.415 42.8043 77.2185C35.9079 69.7992 33.4398 56.8751 37.2892 42.1731C41.1387 27.471 50.3745 14.547 61.1561 7.12762C57.2554 2.93114 51.9379 0.495728 45.5455 0.495728C27.8514 0.495728 8.62188 19.1553 2.59518 42.1731Z" fill="#FE573F"/>
<defs>
<linearGradient id="paint0_linear_120_792" x1="76.4257" y1="56.6478" x2="58.7284" y2="82.5573" gradientUnits="userSpaceOnUse">
<stop stop-color="#E86C26"/>
<stop offset="1" stop-color="#F83E34"/>
</linearGradient>
<linearGradient id="paint1_linear_120_792" x1="51.977" y1="0.495728" x2="51.977" y2="83.8504" gradientUnits="userSpaceOnUse">
<stop stop-color="#FFC859"/>
<stop offset="1" stop-color="#F8E4D3"/>
</linearGradient>
</defs>
</svg>
