<svg width="183" height="61" viewBox="0 0 183 61" fill="none" xmlns="http://www.w3.org/2000/svg">
<path fill-rule="evenodd" clip-rule="evenodd" d="M24.5 61L0 38.9193L24.5 16.8385L49 38.9193L24.5 61ZM24.5 57.4312L45.0402 38.9193L24.5 20.4073L3.9598 38.9193L24.5 57.4312Z" fill="url(#paint0_linear_150_188)"/>
<path fill-rule="evenodd" clip-rule="evenodd" d="M24.8501 58.1406L37.1001 37.2008L24.8501 12.0729L12.6001 37.2008L24.8501 58.1406ZM24.8501 52.281L33.7308 37.1006L24.8501 18.8841L15.9694 37.1006L24.8501 52.281Z" fill="url(#paint1_linear_150_188)"/>
<path fill-rule="evenodd" clip-rule="evenodd" d="M16.9658 39.1284L16.8 36.2188L24.85 42.4081L32.9 36.2188L32.7775 39.3522L31.9808 40.5852L24.85 46.0677L17.456 40.3827L16.9658 39.1284Z" fill="url(#paint2_linear_150_188)"/>
<path fill-rule="evenodd" clip-rule="evenodd" d="M16.6157 34.0451L16.45 31.1354L24.5 37.3247L32.55 31.1354L32.4274 34.2689L31.6307 35.5018L24.5 40.9844L17.1059 35.2994L16.6157 34.0451Z" fill="url(#paint3_linear_150_188)"/>
<path fill-rule="evenodd" clip-rule="evenodd" d="M8.05007 45.5614L16.925 28.402L19.4627 29.4689L10.5877 46.6283L8.05007 45.5614Z" fill="url(#paint4_linear_150_188)"/>
<path fill-rule="evenodd" clip-rule="evenodd" d="M38.9751 46.6283L30.1001 29.4689L32.6378 28.4021L41.5127 45.5614L38.9751 46.6283Z" fill="url(#paint5_linear_150_188)"/>
<path d="M54.2904 56V28H64.3304L69.8904 52.4H70.6104V28H75.8104V56H65.7704L60.2104 31.6H59.4904V56H54.2904ZM90.2873 56.56C88.3139 56.56 86.5673 56.1467 85.0473 55.32C83.5539 54.4667 82.3806 53.28 81.5273 51.76C80.7006 50.2133 80.2873 48.4 80.2873 46.32V45.84C80.2873 43.76 80.7006 41.96 81.5273 40.44C82.3539 38.8933 83.5139 37.7067 85.0073 36.88C86.5006 36.0267 88.2339 35.6 90.2073 35.6C92.1539 35.6 93.8473 36.04 95.2873 36.92C96.7273 37.7733 97.8473 38.9733 98.6473 40.52C99.4473 42.04 99.8473 43.8133 99.8473 45.84V47.56H85.4073C85.4606 48.92 85.9673 50.0267 86.9273 50.88C87.8873 51.7333 89.0606 52.16 90.4473 52.16C91.8606 52.16 92.9006 51.8533 93.5673 51.24C94.2339 50.6267 94.7406 49.9467 95.0873 49.2L99.2073 51.36C98.8339 52.0533 98.2873 52.8133 97.5673 53.64C96.8739 54.44 95.9406 55.1333 94.7673 55.72C93.5939 56.28 92.1006 56.56 90.2873 56.56ZM85.4473 43.8H94.7273C94.6206 42.6533 94.1539 41.7333 93.3273 41.04C92.5273 40.3467 91.4739 40 90.1673 40C88.8073 40 87.7273 40.3467 86.9273 41.04C86.1273 41.7333 85.6339 42.6533 85.4473 43.8ZM101.284 56L108.484 46L101.364 36.16H107.204L111.724 42.76H112.444L116.964 36.16H122.804L115.684 46L122.884 56H116.964L112.444 49.32H111.724L107.204 56H101.284ZM133.036 56V32.8H124.876V28H146.476V32.8H138.316V56H133.036ZM150.072 56V28H155.352V56H150.072ZM170.339 56.56C168.179 56.56 166.272 56.1733 164.619 55.4C162.965 54.6267 161.672 53.52 160.739 52.08C159.805 50.64 159.339 48.9067 159.339 46.88V45.76H164.539V46.88C164.539 48.56 165.059 49.8267 166.099 50.68C167.139 51.5067 168.552 51.92 170.339 51.92C172.152 51.92 173.499 51.56 174.379 50.84C175.285 50.12 175.739 49.2 175.739 48.08C175.739 47.3067 175.512 46.68 175.059 46.2C174.632 45.72 173.992 45.3333 173.139 45.04C172.312 44.72 171.299 44.4267 170.099 44.16L169.179 43.96C167.259 43.5333 165.605 43 164.219 42.36C162.859 41.6933 161.805 40.8267 161.059 39.76C160.339 38.6933 159.979 37.3067 159.979 35.6C159.979 33.8933 160.379 32.44 161.179 31.24C162.005 30.0133 163.152 29.08 164.619 28.44C166.112 27.7733 167.859 27.44 169.859 27.44C171.859 27.44 173.632 27.7867 175.179 28.48C176.752 29.1467 177.979 30.16 178.859 31.52C179.765 32.8533 180.219 34.5333 180.219 36.56V37.76H175.019V36.56C175.019 35.4933 174.805 34.64 174.379 34C173.979 33.3333 173.392 32.8533 172.619 32.56C171.845 32.24 170.925 32.08 169.859 32.08C168.259 32.08 167.072 32.3867 166.299 33C165.552 33.5867 165.179 34.4 165.179 35.44C165.179 36.1333 165.352 36.72 165.699 37.2C166.072 37.68 166.619 38.08 167.339 38.4C168.059 38.72 168.979 39 170.099 39.24L171.019 39.44C173.019 39.8667 174.752 40.4133 176.219 41.08C177.712 41.7467 178.872 42.6267 179.699 43.72C180.525 44.8133 180.939 46.2133 180.939 47.92C180.939 49.6267 180.499 51.1333 179.619 52.44C178.765 53.72 177.539 54.7333 175.939 55.48C174.365 56.2 172.499 56.56 170.339 56.56Z" fill="#2ECFA7"/>
<defs>
<linearGradient id="paint0_linear_150_188" x1="24.5" y1="16.8385" x2="24.5" y2="61" gradientUnits="userSpaceOnUse">
<stop stop-color="#19FFC6"/>
<stop offset="1" stop-color="#009988"/>
</linearGradient>
<linearGradient id="paint1_linear_150_188" x1="24.8501" y1="12.0729" x2="24.8501" y2="58.1406" gradientUnits="userSpaceOnUse">
<stop stop-color="#19FFC6"/>
<stop offset="1" stop-color="#009988"/>
</linearGradient>
<linearGradient id="paint2_linear_150_188" x1="24.85" y1="36.2188" x2="24.85" y2="46.0677" gradientUnits="userSpaceOnUse">
<stop stop-color="#19FFC6"/>
<stop offset="1" stop-color="#009988"/>
</linearGradient>
<linearGradient id="paint3_linear_150_188" x1="24.5" y1="31.1354" x2="24.5" y2="40.9844" gradientUnits="userSpaceOnUse">
<stop stop-color="#19FFC6"/>
<stop offset="1" stop-color="#009988"/>
</linearGradient>
<linearGradient id="paint4_linear_150_188" x1="18.1939" y1="28.9355" x2="10.7303" y2="46.6882" gradientUnits="userSpaceOnUse">
<stop stop-color="#19FFC6"/>
<stop offset="1" stop-color="#009988"/>
</linearGradient>
<linearGradient id="paint5_linear_150_188" x1="31.3689" y1="28.9355" x2="38.8325" y2="46.6882" gradientUnits="userSpaceOnUse">
<stop stop-color="#19FFC6"/>
<stop offset="1" stop-color="#009988"/>
</linearGradient>
</defs>
</svg>
